<svg xmlns="http://www.w3.org/2000/svg" viewBox="0 0 80.09 78.49"><defs><style>.cls-1{fill:#ffc715;stroke:#041027;stroke-linecap:round;stroke-width:0.8px;}</style></defs><g id="Layer_2" data-name="Layer 2"><g id="Layer_1-2" data-name="Layer 1"><path class="cls-1" d="M28,77.12A35.23,35.23,0,0,1,7,62.22a40.48,40.48,0,0,1-3.47-37.9A40.46,40.46,0,0,1,33.56.9,40.49,40.49,0,0,1,69.49,13.45a40.47,40.47,0,0,1,8.88,37A40.44,40.44,0,0,1,52.06,77.94c-.1-6.52-.26-13.31-3.19-19.15A30.18,30.18,0,0,0,61.23,51.7c5.43-5.5,7.24-14.9,3-21.63a8.47,8.47,0,0,1-1.52-2.95,8.13,8.13,0,0,1,.2-2.64,15.26,15.26,0,0,0-.18-5.39,4.08,4.08,0,0,0-1.31-2.49,4.29,4.29,0,0,0-3.65-.27,21,21,0,0,0-7.86,4,32.31,32.31,0,0,0-15.29-.91,12.74,12.74,0,0,1-4.29.35c-2.13-.36-3.8-1.95-5.69-3s-4.68-1.38-6,.35a4.81,4.81,0,0,0-.82,2.33A15.92,15.92,0,0,0,18.51,27a19.43,19.43,0,0,0-3,19.27A19.44,19.44,0,0,0,31.13,58c-1,2.8-3.35,5.6-6.31,5.36-2.5-.2-4.28-2.43-5.74-4.47s-3.23-4.26-5.73-4.46c-1.38-.12-3,.86-2.83,2.23s1.61,1.76,2.62,2.49c2.18,1.58,2.67,4.62,4.36,6.71,2.5,3.09,7,3.49,11,3.65C28.53,72,28,74.66,28,77.12Z"/></g></g></svg>